<svg width="100" height="100" viewBox="0 0 100 100" fill="none" xmlns="http://www.w3.org/2000/svg">
<circle cx="50" cy="50" r="50" fill="white"/>
<path d="M23.1508 40.83C16.6228 42.7257 12 48.7656 12 55.6137C12 64.1078 18.9415 71 27.4634 71H39.84C38.4812 70.0742 37.2554 68.9867 36.192 67.7523H27.4486C20.7138 67.7523 15.2492 62.3002 15.2492 55.6137C15.2492 49.9265 19.296 44.9447 24.8788 43.7397L25.9717 43.5045L26.1489 42.4171C27.1237 36.5241 32.1748 32.2477 38.1858 32.2477C40.8 32.2477 43.2369 33.056 45.2455 34.4668C45.8215 33.5409 46.4861 32.6739 47.2098 31.8656C44.6548 30.0434 41.5384 29 38.1858 29C30.9489 29 24.7901 33.9083 23.1508 40.83Z" fill="black"/>
<path d="M76.8519 40.83C75.2126 33.9083 69.0538 29 61.8021 29C54.5504 29 48.3916 33.9083 46.7523 40.83C43.1043 41.888 40.047 44.254 38.0532 47.3254C36.783 49.2946 38.2009 51.8957 40.564 51.8957H43.4735C43.8575 51.8957 44.1677 51.5871 44.1677 51.205V49.662C44.1677 49.2505 44.6107 49.0007 44.9652 49.2064L53.9006 54.4528C54.6981 54.923 54.6981 56.0693 53.9006 56.5395L44.9652 61.8006C44.6107 62.0063 44.1677 61.7565 44.1677 61.345V59.802C44.1677 59.4199 43.8575 59.1113 43.4735 59.1113H39.7073H39.3824C37.7283 59.1113 36.2957 58.1414 35.6163 56.7453C35.631 56.8775 35.631 57.0098 35.6458 57.1421C35.6458 57.1274 35.631 57.1127 35.631 57.1127L35.6458 57.1714C35.7787 58.5675 36.1184 59.5227 36.1184 59.5227C37.8612 66.1211 43.9018 71 51.0649 71H72.2144C79.791 71 86.4519 65.6949 87.7664 58.2883C89.1547 50.3968 84.207 42.9608 76.8519 40.83Z" fill="black"/>
</svg>
